<?xml version="1.0" encoding="UTF-8"?>
<svg width="700pt" height="700pt" version="1.1" viewBox="0 0 700 700" xmlns="http://www.w3.org/2000/svg">
 <g>
  <path d="m368.31 32.586c62.332 10.117 104.66 68.844 94.543 131.17-10.113 62.332-68.84 104.66-131.17 94.543-62.332-10.113-104.66-68.84-94.543-131.17 10.113-62.328 68.84-104.66 131.17-94.543"/>
  <path d="m558.6 508.67c-0.015624 5.3555-2.1523 10.492-5.9414 14.281-3.7891 3.7891-8.9258 5.9258-14.281 5.9414h-376.76c-5.3555-0.015625-10.492-2.1523-14.281-5.9414-3.7891-3.7891-5.9258-8.9258-5.9414-14.281 0-55.324 21.98-108.38 61.098-147.5 39.121-39.121 92.18-61.098 147.5-61.098s108.38 21.977 147.5 61.098c39.117 39.121 61.098 92.18 61.098 147.5z"/>
 </g>
</svg>
