<svg version="1.2" xmlns="http://www.w3.org/2000/svg" viewBox="0 0 408 404" width="408" height="404"><style>.a{fill:#fff}</style><path fill-rule="evenodd" class="a" d="m278.2 211.6h-268.7c-4.8 0-8.8-3.9-8.8-8.7 0-4.9 4-8.8 8.8-8.8h268.7l-46.9-53.4c-3.2-3.6-2.8-9.1 0.8-12.3 1.7-1.5 4-2.3 6.4-2.2 2.3 0.2 4.5 1.2 6 3l59.5 68.4q0.4 0.5 0.6 1l0.8 1.1q0 0.3 0 0.5 0.1 0.8 0 1.5 0.1 0.7 0 1.3 0.1 0.7 0 1.4v1.4q0 0.3 0 0.6l-0.8 1.1c0 0 0 0.7-0.6 1l-59.5 68.3c-1.7 1.9-4.1 3-6.6 3-2.2 0-4.2-0.7-5.8-2.1-1.8-1.6-2.9-3.7-3-6.1-0.1-2.3 0.6-4.6 2.2-6.3zm85.3-210.9h-175c-11.6 0-22.7 4.6-30.9 12.8-8.2 8.2-12.8 19.3-12.8 30.9v70c0 4.9 3.9 8.8 8.7 8.8 4.8 0 8.8-3.9 8.8-8.8v-70c0-6.9 2.7-13.6 7.7-18.5 4.9-5 11.6-7.7 18.5-7.7h175c7 0 13.7 2.7 18.6 7.7 4.9 4.9 7.7 11.6 7.7 18.5v315c0 7-2.8 13.7-7.7 18.6-4.9 4.9-11.6 7.7-18.6 7.7h-175c-6.9 0-13.6-2.8-18.5-7.7-5-4.9-7.7-11.6-7.7-18.6v-70c0-4.8-4-8.7-8.8-8.7-4.8 0-8.7 3.9-8.7 8.7v70c0 11.6 4.6 22.8 12.8 31 8.2 8.2 19.3 12.8 30.9 12.8h175c11.6 0 22.7-4.6 31-12.8 8.2-8.2 12.8-19.4 12.8-31v-315c0-11.6-4.6-22.7-12.8-30.9-8.3-8.2-19.4-12.8-31-12.8z"/></svg>